<svg width="50" height="50" viewBox="0 0 50 50" fill="none" xmlns="http://www.w3.org/2000/svg">
<circle cx="25" cy="25" r="25" fill="#B3BD1F"/>
<path d="M24.5007 25.4999C22.8965 25.4999 21.5232 24.9287 20.3809 23.7864C19.2385 22.644 18.6673 21.2708 18.6673 19.6666C18.6673 18.0624 19.2385 16.6892 20.3809 15.5468C21.5232 14.4044 22.8965 13.8333 24.5007 13.8333C26.1048 13.8333 27.4781 14.4044 28.6204 15.5468C29.7628 16.6892 30.334 18.0624 30.334 19.6666C30.334 21.2708 29.7628 22.644 28.6204 23.7864C27.4781 24.9287 26.1048 25.4999 24.5007 25.4999ZM12.834 37.1666V33.0833C12.834 32.2569 13.0467 31.4973 13.472 30.8046C13.8974 30.1119 14.4625 29.5833 15.1673 29.2187C16.6743 28.4652 18.2055 27.9001 19.7611 27.5234C21.3166 27.1466 22.8965 26.9583 24.5007 26.9583C26.1048 26.9583 27.6847 27.1466 29.2402 27.5234C30.7958 27.9001 32.327 28.4652 33.834 29.2187C34.5388 29.5833 35.1039 30.1119 35.5293 30.8046C35.9546 31.4973 36.1673 32.2569 36.1673 33.0833V37.1666H12.834ZM15.7507 34.2499H33.2506V33.0833C33.2506 32.8159 33.1838 32.5728 33.0501 32.3541C32.9164 32.1353 32.7402 31.9652 32.5215 31.8437C31.209 31.1874 29.8843 30.6952 28.5475 30.3671C27.2107 30.039 25.8618 29.8749 24.5007 29.8749C23.1395 29.8749 21.7906 30.039 20.4538 30.3671C19.117 30.6952 17.7923 31.1874 16.4798 31.8437C16.2611 31.9652 16.0849 32.1353 15.9512 32.3541C15.8175 32.5728 15.7507 32.8159 15.7507 33.0833V34.2499ZM24.5007 22.5833C25.3027 22.5833 25.9894 22.2977 26.5605 21.7265C27.1317 21.1553 27.4173 20.4687 27.4173 19.6666C27.4173 18.8645 27.1317 18.1779 26.5605 17.6067C25.9894 17.0355 25.3027 16.7499 24.5007 16.7499C23.6986 16.7499 23.0119 17.0355 22.4408 17.6067C21.8696 18.1779 21.584 18.8645 21.584 19.6666C21.584 20.4687 21.8696 21.1553 22.4408 21.7265C23.0119 22.2977 23.6986 22.5833 24.5007 22.5833Z" fill="#1D1B20"/>
</svg>
